<svg xmlns="http://www.w3.org/2000/svg" xmlns:xlink="http://www.w3.org/1999/xlink" width="500" zoomAndPan="magnify" viewBox="0 0 375 374.999991" height="500" preserveAspectRatio="xMidYMid meet" version="1.2"><g id="a808eac3e6"><rect x="0" width="375" y="0" height="374.999991" style="fill:#ffffff;fill-opacity:1;stroke:none;"/><rect x="0" width="375" y="0" height="374.999991" style="fill:#083344;fill-opacity:1;stroke:none;"/><path style=" stroke:none;fill-rule:nonzero;fill:#ecfeff;fill-opacity:1;" d="M 76.097656 312.609375 C 75.839844 311.203125 77.308594 310.316406 78.34375 309.59375 C 92.261719 301.125 98.640625 309.507812 112.332031 310.289062 C 124.917969 310.640625 136.59375 306.148438 148.707031 303.511719 C 153.363281 301.542969 157.246094 305.730469 161.765625 302.886719 C 157.882812 302.867188 155.234375 300.441406 151.4375 301.246094 C 145.789062 302.132812 147.253906 302.722656 143.007812 298.542969 C 142.011719 297.050781 139.410156 296.003906 139.957031 293.957031 C 159.644531 293.519531 178.71875 288.316406 196.734375 280.742188 C 218.886719 274.632812 239.210938 262.949219 260.5625 255.042969 C 258.847656 264.859375 253.398438 274.308594 248.761719 283.261719 C 247.925781 284.765625 246.804688 285.644531 245.03125 286.003906 C 236.628906 287.699219 228.683594 291.03125 220.320312 292.875 C 217.773438 292.511719 215.609375 295.289062 220.570312 294.484375 C 240.246094 288.554688 252.671875 286.070312 255.242188 287.363281 C 279.527344 292.835938 283.882812 299.480469 311.25 292.722656 C 316.847656 291.277344 320.386719 299.347656 318.671875 301.417969 C 317.742188 302.535156 315.960938 301.351562 314.769531 301.160156 C 313.5625 300.960938 312.523438 299.554688 310.953125 300.570312 C 313.953125 303.769531 322.449219 304 320.539062 298.003906 C 315.277344 283.304688 298.203125 297.492188 286.578125 293.652344 C 274.351562 292.324219 264.101562 285.253906 251.511719 284.625 C 256.964844 275.0625 260.058594 264.832031 263.941406 254.59375 C 264.671875 252.8125 263.332031 250.703125 261.359375 251.328125 C 258.695312 251.960938 253.089844 257.230469 251.339844 253.9375 C 242.253906 242.730469 232.242188 232.203125 221.246094 222.832031 C 212.511719 214.164062 200.871094 209.132812 192.820312 199.832031 C 187.789062 195.503906 182.800781 191.125 177.710938 186.871094 C 162.925781 175.148438 146.167969 165.941406 130.753906 155.4375 C 126.328125 148.59375 136.511719 148.316406 140.136719 145.863281 C 141.925781 144.976562 141.285156 142.386719 139.203125 142.867188 C 137.929688 142.96875 136.664062 143.214844 135.511719 142.695312 C 135.558594 140.695312 137.097656 139.574219 137.226562 137.945312 C 137.367188 136.765625 136.425781 135.359375 135.128906 136.269531 C 131.4375 139.613281 125.824219 137.386719 122.457031 140.636719 C 117.699219 144.253906 123.085938 146.925781 124.84375 150.820312 C 135.613281 165.75 137.804688 184.445312 142.6875 201.773438 C 148.136719 227.140625 148.289062 253.472656 147.445312 279.316406 C 146.652344 286.972656 148.003906 293.386719 137.671875 290.703125 C 131.753906 291.496094 141.984375 300.265625 142.773438 302.152344 C 133.371094 307.023438 121.667969 308.367188 111.066406 308.117188 C 102.882812 307.925781 95.679688 301.457031 87.429688 304.121094 C 82.703125 305.730469 75.78125 306.917969 73.96875 312.179688 C 73.792969 315.40625 78.304688 317.007812 80.484375 315.113281 C 81.464844 312.621094 76.203125 315.214844 76.097656 312.609375 Z M 127.699219 150.058594 C 120.410156 141.515625 124.625 140.933594 133.058594 139.898438 C 134.214844 141.171875 131.257812 142.449219 133.078125 144.132812 C 135.53125 146.519531 131.296875 145.046875 127.699219 150.058594 Z M 183.230469 283.214844 C 172.050781 286.792969 160.003906 290.316406 148.367188 290.769531 C 150.640625 282.300781 173.878906 267.679688 182.632812 264.625 C 182.5 269.476562 187.445312 281.085938 183.230469 283.214844 Z M 189.824219 280.96875 C 185.789062 280.292969 194.410156 273.414062 195.484375 271.585938 C 197.820312 272.949219 198.214844 275.40625 199.671875 277.433594 C 196.132812 278.722656 192.992188 279.875 189.824219 280.96875 Z M 209.292969 274.335938 C 207.058594 274.921875 205.089844 276.480469 202.621094 276.125 C 201.246094 273.703125 197 270.257812 198.996094 267.46875 C 201.394531 265.367188 203.480469 262.683594 206.542969 261.539062 C 208.777344 263.546875 209.578125 266.542969 211.253906 268.960938 C 213.601562 272.882812 213.625 272.472656 209.292969 274.335938 Z M 235.84375 263.289062 C 217.828125 268.820312 218.359375 277.441406 210.671875 261.523438 C 209.054688 256.4375 234.652344 259.410156 237.023438 261.976562 C 236.894531 262.796875 236.355469 263.089844 235.84375 263.289062 Z M 235.625 258.523438 C 231 257.898438 226.421875 256.457031 221.738281 256.667969 C 221.738281 256.742188 221.738281 256.8125 221.738281 256.886719 C 210.949219 256.382812 229.550781 252.660156 231.988281 253.28125 C 233.75 253.28125 237.355469 256.695312 237.496094 258.316406 C 237.058594 259.296875 236.269531 258.636719 235.625 258.523438 Z M 248.191406 257.46875 C 241.542969 261.40625 241.824219 259.644531 237.503906 254.441406 C 240.757812 253.488281 243.746094 254.128906 248.628906 256.871094 C 248.363281 257.242188 248.304688 257.417969 248.191406 257.46875 Z M 245.394531 250.152344 C 244.8125 250.140625 230.066406 241.625 226.003906 237.09375 C 228.5625 241.949219 239.4375 248 239.695312 248.542969 C 238.457031 248.753906 232.101562 246.679688 231.976562 246.746094 C 232.957031 247.921875 238.742188 249.332031 239.886719 251 C 219.53125 248.972656 202.167969 259.511719 189.75 274.851562 C 189.546875 271.398438 191.214844 268.574219 190.699219 265.339844 C 189.785156 266.964844 189.671875 268.769531 188.566406 270.789062 C 187.960938 266.148438 188.445312 262.21875 189.0625 257.601562 C 186.550781 262.910156 188.566406 268.152344 186.617188 273.359375 C 181.605469 248.484375 178.484375 222.90625 169.632812 198.808594 C 171.042969 199.035156 177.609375 210.882812 177.617188 210.878906 C 177.863281 209.652344 172.144531 198.785156 171.164062 196.777344 C 172.230469 196.054688 180.175781 205.773438 180.175781 205.773438 C 180.183594 204.277344 173.289062 195.53125 172.097656 193.875 C 173.164062 192.203125 174.503906 194.074219 175.675781 194.449219 C 201.925781 208.855469 226.097656 227.210938 245.394531 250.152344 Z M 137.453125 162.476562 C 155.039062 172.886719 172.582031 183.988281 187.398438 198.226562 C 180.359375 195.839844 174.582031 190.128906 167.234375 188.023438 C 162.21875 187.128906 161.050781 181.042969 158.453125 181.441406 C 157.539062 181.71875 157.511719 183.179688 158.683594 184.445312 C 168.539062 196.710938 172.128906 212.972656 175.199219 228.1875 C 162.316406 206.152344 149.042969 184.417969 135.996094 162.554688 C 136.441406 161.789062 136.976562 162.269531 137.453125 162.476562 Z M 147.394531 217.921875 C 146.234375 202.980469 141.46875 188.855469 138.214844 174.359375 C 139.585938 174.207031 139.726562 175.3125 140.109375 175.949219 C 150.089844 191.976562 158.851562 208.691406 168.730469 224.761719 C 177.019531 238.039062 180.183594 243.261719 181.957031 259.097656 C 182.296875 260.910156 181.859375 262.207031 180.03125 263.007812 C 168.519531 267.925781 160.300781 277.707031 149.527344 283.625 C 149.871094 261.636719 150.25 239.769531 147.394531 217.921875 Z M 214.546875 313.496094 C 199.652344 316.015625 205.132812 303.644531 215.800781 302.714844 C 223.910156 301.332031 231.238281 305.683594 238.617188 308.375 C 254.214844 312.96875 273.304688 311.640625 287.082031 302.542969 C 287.871094 302.097656 288.890625 300.773438 289.6875 301.835938 C 291.085938 304.605469 278.382812 309.316406 275.777344 310.097656 C 266.519531 312.535156 257.210938 312.902344 247.742188 312.085938 C 235.753906 311.503906 224.945312 301.132812 212.824219 305.546875 C 205.085938 308.726562 206.878906 312.742188 214.546875 313.496094 Z M 359.558594 319.851562 C 366.703125 308.117188 348.453125 309.238281 343.078125 314.941406 C 316.683594 335.777344 301.285156 311.03125 279.90625 321.941406 C 275.1875 321.441406 287.394531 315.996094 289.128906 317.292969 C 290.003906 317.394531 290.898438 317.308594 292.410156 317.308594 C 302.523438 315.980469 313.210938 323.734375 323.488281 321.792969 C 329.976562 320.34375 336.359375 318.492188 341.652344 314.148438 C 346.855469 309.238281 359.644531 304.761719 362.9375 313.371094 C 364.46875 314.941406 359.695312 324.730469 359.558594 319.851562 Z M 229.320312 321.355469 C 221.804688 323.066406 215.195312 327.757812 207.132812 325.84375 C 198.738281 326.253906 191.644531 321.964844 183.628906 320.324219 C 178.292969 319.519531 173.050781 319.933594 167.851562 321.046875 C 167.617188 321.003906 167.261719 320.792969 167.234375 320.621094 C 169.335938 317.320312 174.886719 318.785156 178.339844 318.117188 C 190.136719 317.527344 200.113281 325.472656 211.949219 324.648438 C 221.625 324.582031 230.207031 316.128906 240.171875 320.328125 C 243.308594 321.894531 250.054688 321.375 250.230469 325.863281 C 249.90625 330.421875 240.113281 327.890625 247.050781 326.460938 C 249.476562 323.085938 231.851562 320.621094 229.320312 321.355469 Z M 153.191406 313.371094 C 146.519531 314.644531 142.191406 319.984375 135.949219 322.03125 C 130.269531 324.359375 123.539062 319.933594 118.792969 325.257812 C 116.121094 318.164062 134.570312 321.894531 138.128906 319.472656 C 149.097656 311.914062 162.117188 307.644531 175.597656 308.992188 C 181.488281 310.773438 186.636719 311.097656 192.726562 310.039062 C 181.203125 316.578125 171.496094 306.023438 153.191406 313.371094 Z M 304.324219 333.53125 C 282.097656 347.730469 270.769531 323.207031 246.738281 337.207031 C 244.652344 338.160156 235.746094 341.289062 234.886719 338.785156 C 236.003906 337.453125 238.515625 337.730469 240.160156 337.273438 C 249.179688 335.789062 256.972656 329.726562 266.511719 330.734375 C 283.789062 334.667969 285.480469 338.804688 304.324219 333.53125 Z M 128.441406 334.199219 C 130.011719 334.371094 131.601562 334.675781 132.808594 335.570312 C 122.53125 339.453125 111.34375 325.902344 99.683594 329.472656 C 91.410156 328.910156 83.035156 340.832031 96.382812 334.980469 C 99.097656 335.914062 92.121094 338.042969 91.246094 338.679688 C 88.820312 339.640625 85.964844 336.171875 87.4375 334.058594 C 90.800781 328.207031 97.601562 327.480469 103.675781 326.871094 C 112.703125 326.3125 119.785156 333.144531 128.441406 334.199219 Z M 67.621094 304.09375 C 55.886719 308.652344 43.277344 314 30.03125 312.351562 C 24.960938 312.6875 20.269531 310.011719 15.371094 309.746094 C 9.730469 311.335938 16.976562 314.867188 19.40625 315.414062 C 15.332031 317.75 8.222656 312.105469 13.132812 308.707031 C 14.886719 307.652344 16.804688 307.519531 18.660156 308.222656 C 26.757812 311.289062 35.066406 311.269531 43.453125 310.019531 C 51.996094 310.820312 60.511719 301.34375 67.621094 304.09375 Z M 73.917969 292.105469 C 81.378906 288.886719 89.039062 292.171875 96.738281 292.847656 C 105.671875 294.691406 112.941406 287.003906 121.601562 289.050781 C 123.476562 290.027344 127.613281 289.15625 128.257812 291.316406 C 121.867188 293.351562 121.6875 287.109375 108.894531 293.160156 C 97.449219 297.820312 85.640625 289.984375 73.917969 292.105469 Z M 210.3125 298.386719 C 190.042969 294.738281 186.449219 305.015625 170.699219 302.496094 C 167.769531 300.144531 173.351562 300.753906 174.753906 300.886719 C 187.980469 301.160156 195.640625 291.972656 210.683594 297.144531 C 211.539062 297.539062 211.167969 298.519531 210.3125 298.386719 Z M 85.574219 32.765625 C 90.382812 34.324219 92.636719 27.242188 97.847656 28.597656 C 98.765625 28.617188 99.53125 28.996094 99.714844 29.972656 C 96.84375 31.421875 92.71875 29.726562 90.914062 34.011719 C 91.589844 34.09375 92.265625 34.171875 92.988281 34.25 C 91.273438 35.820312 87.277344 39.578125 86.324219 36.847656 C 86.785156 34.960938 84.183594 34.351562 82.941406 35.273438 C 82.160156 35.902344 81.609375 36.816406 80.890625 37.523438 C 76.527344 39.378906 83.074219 30.714844 85.574219 32.765625 Z M 241.722656 118.242188 C 241.996094 115.429688 248.117188 113.683594 250.097656 115.90625 C 252.523438 117.984375 254.898438 115.089844 257.574219 115.394531 C 259.179688 115.15625 262.835938 116.535156 261.683594 118.457031 C 259.265625 119.820312 258.742188 115.347656 252.808594 118.59375 C 253.527344 119.507812 253.882812 119.96875 254.378906 120.601562 C 252.882812 121.363281 243.824219 121.988281 248.125 119.097656 C 249.820312 117.5625 246.59375 116.699219 245.5 117.34375 C 244.320312 117.542969 242.710938 119.707031 241.722656 118.242188 Z M 182.839844 76.304688 C 182.585938 75.351562 185.523438 74.714844 185.75 74.726562 C 192.777344 74.535156 190.003906 80.21875 198.148438 75.964844 C 200.546875 74.917969 202.261719 76.636719 201.625 79.019531 C 201.464844 79.160156 200.957031 79.179688 200.863281 79.054688 C 199.320312 76.902344 197.523438 77.796875 195.773438 78.636719 C 195.429688 78.800781 194.960938 79.359375 195.027344 79.605469 C 195.789062 82.71875 191.984375 80.929688 190.425781 80.9375 C 187.730469 79.929688 190.792969 76.589844 185.359375 76.78125 C 184.496094 76.523438 183.011719 77.835938 182.839844 76.304688 Z M 68.847656 174.425781 C 68.820312 174.417969 68.796875 174.40625 68.769531 174.390625 C 68.789062 174.378906 68.808594 174.363281 68.828125 174.351562 L 68.769531 174.144531 C 68.789062 174.1875 68.835938 174.265625 68.847656 174.339844 C 68.855469 174.339844 68.855469 174.332031 68.863281 174.332031 Z M 68.769531 174.390625 C 60.960938 179.984375 64.738281 171.410156 60.570312 174.683594 C 59.789062 175.300781 59.417969 177.136719 58.238281 176.851562 C 57.410156 174.828125 60.539062 170.59375 62.902344 171.589844 C 66.960938 172.855469 66.332031 164.921875 73.1875 166.253906 C 77.285156 167.730469 72.566406 168.453125 70.796875 168.488281 C 67.992188 169.023438 64.714844 172.964844 68.769531 174.390625 Z M 186.445312 220.636719 C 192.433594 217.894531 200.9375 236.714844 209.128906 238.027344 C 209.710938 238.238281 209.457031 239.171875 208.867188 238.960938 C 198.1875 235.546875 197.570312 225.335938 186.445312 220.636719 Z M 186.445312 220.636719 "/></g></svg>