<svg xmlns="http://www.w3.org/2000/svg" xmlns:xlink="http://www.w3.org/1999/xlink" width="500" zoomAndPan="magnify" viewBox="0 0 375 374.999991" height="500" preserveAspectRatio="xMidYMid meet" version="1.2"><defs/><g id="51cabf5b30"><rect x="0" width="375" y="0" height="374.999991" style="fill:#ffffff;fill-opacity:1;stroke:none;"/><rect x="0" width="375" y="0" height="374.999991" style="fill:#083344;fill-opacity:1;stroke:none;"/><path style=" stroke:none;fill-rule:nonzero;fill:#ecfeff;fill-opacity:1;" d="M 94.050781 253.164062 C 93.835938 251.988281 95.070312 251.242188 95.9375 250.636719 C 107.609375 243.53125 112.964844 250.5625 124.449219 251.21875 C 135.003906 251.515625 144.800781 247.746094 154.964844 245.53125 C 158.871094 243.882812 162.128906 247.394531 165.921875 245.007812 C 162.664062 244.992188 160.4375 242.957031 157.253906 243.632812 C 152.515625 244.375 153.746094 244.871094 150.183594 241.363281 C 149.347656 240.113281 147.164062 239.234375 147.625 237.515625 C 164.140625 237.148438 180.140625 232.785156 195.253906 226.429688 C 213.839844 221.304688 230.890625 211.503906 248.800781 204.871094 C 247.363281 213.105469 242.792969 221.03125 238.902344 228.542969 C 238.199219 229.804688 237.261719 230.542969 235.769531 230.84375 C 228.722656 232.269531 222.054688 235.0625 215.039062 236.609375 C 212.90625 236.304688 211.089844 238.632812 215.253906 237.960938 C 231.757812 232.984375 242.179688 230.902344 244.335938 231.984375 C 264.710938 236.578125 268.363281 242.152344 291.324219 236.480469 C 296.019531 235.269531 298.988281 242.042969 297.550781 243.777344 C 296.769531 244.714844 295.277344 243.71875 294.273438 243.558594 C 293.261719 243.390625 292.390625 242.214844 291.074219 243.0625 C 293.589844 245.75 300.71875 245.945312 299.117188 240.914062 C 294.703125 228.582031 280.378906 240.484375 270.625 237.261719 C 260.371094 236.148438 251.769531 230.214844 241.207031 229.6875 C 245.78125 221.667969 248.378906 213.082031 251.636719 204.496094 C 252.25 203 251.125 201.230469 249.46875 201.753906 C 247.234375 202.289062 242.53125 206.707031 241.0625 203.945312 C 233.441406 194.542969 225.042969 185.710938 215.820312 177.847656 C 208.492188 170.578125 198.726562 166.359375 191.96875 158.554688 C 187.75 154.921875 183.566406 151.25 179.296875 147.679688 C 166.894531 137.847656 152.832031 130.125 139.902344 121.3125 C 136.191406 115.570312 144.734375 115.335938 147.773438 113.28125 C 149.277344 112.535156 148.738281 110.363281 146.992188 110.765625 C 145.925781 110.851562 144.863281 111.054688 143.894531 110.621094 C 143.933594 108.945312 145.222656 108.003906 145.335938 106.636719 C 145.453125 105.648438 144.660156 104.46875 143.574219 105.230469 C 140.476562 108.039062 135.765625 106.167969 132.941406 108.894531 C 128.953125 111.929688 133.472656 114.167969 134.945312 117.4375 C 143.976562 129.964844 145.816406 145.644531 149.914062 160.183594 C 154.484375 181.464844 154.613281 203.554688 153.90625 225.234375 C 153.238281 231.65625 154.375 237.039062 145.707031 234.785156 C 140.742188 235.453125 149.324219 242.808594 149.988281 244.390625 C 142.097656 248.476562 132.28125 249.605469 123.386719 249.394531 C 116.523438 249.234375 110.480469 243.808594 103.558594 246.042969 C 99.59375 247.394531 93.785156 248.390625 92.265625 252.804688 C 92.117188 255.511719 95.902344 256.855469 97.730469 255.265625 C 98.554688 253.175781 94.140625 255.351562 94.050781 253.164062 Z M 137.339844 116.800781 C 131.226562 109.632812 134.761719 109.144531 141.835938 108.277344 C 142.804688 109.34375 140.324219 110.417969 141.855469 111.828125 C 143.910156 113.832031 140.359375 112.597656 137.339844 116.800781 Z M 183.925781 228.503906 C 174.546875 231.507812 164.441406 234.464844 154.679688 234.84375 C 156.585938 227.738281 176.082031 215.472656 183.425781 212.910156 C 183.316406 216.980469 187.460938 226.71875 183.925781 228.503906 Z M 189.457031 226.621094 C 186.070312 226.054688 193.304688 220.28125 194.203125 218.75 C 196.167969 219.894531 196.496094 221.957031 197.71875 223.65625 C 194.75 224.734375 192.113281 225.703125 189.457031 226.621094 Z M 205.789062 221.054688 C 203.917969 221.550781 202.265625 222.855469 200.191406 222.554688 C 199.042969 220.527344 195.476562 217.636719 197.152344 215.296875 C 199.164062 213.535156 200.914062 211.28125 203.484375 210.320312 C 205.355469 212.003906 206.03125 214.519531 207.4375 216.546875 C 209.402344 219.835938 209.425781 219.492188 205.789062 221.054688 Z M 228.066406 211.789062 C 212.949219 216.429688 213.394531 223.664062 206.945312 210.308594 C 205.589844 206.039062 227.066406 208.535156 229.054688 210.6875 C 228.945312 211.375 228.492188 211.621094 228.066406 211.789062 Z M 227.882812 207.792969 C 224.003906 207.269531 220.160156 206.058594 216.230469 206.234375 C 216.230469 206.296875 216.230469 206.355469 216.230469 206.417969 C 207.179688 205.996094 222.785156 202.871094 224.832031 203.394531 C 226.308594 203.394531 229.332031 206.257812 229.449219 207.617188 C 229.082031 208.441406 228.421875 207.886719 227.882812 207.792969 Z M 238.421875 206.90625 C 232.847656 210.210938 233.082031 208.730469 229.457031 204.367188 C 232.183594 203.566406 234.691406 204.105469 238.789062 206.40625 C 238.566406 206.71875 238.515625 206.863281 238.421875 206.90625 Z M 236.078125 200.769531 C 235.585938 200.757812 223.21875 193.617188 219.808594 189.8125 C 221.957031 193.886719 231.078125 198.964844 231.296875 199.417969 C 230.257812 199.597656 224.925781 197.855469 224.820312 197.914062 C 225.640625 198.894531 230.496094 200.082031 231.457031 201.480469 C 214.378906 199.78125 199.8125 208.621094 189.394531 221.488281 C 189.222656 218.59375 190.625 216.222656 190.191406 213.511719 C 189.425781 214.875 189.328125 216.386719 188.402344 218.082031 C 187.894531 214.191406 188.300781 210.894531 188.816406 207.019531 C 186.710938 211.472656 188.402344 215.867188 186.765625 220.238281 C 182.5625 199.367188 179.945312 177.910156 172.519531 157.699219 C 173.703125 157.886719 179.210938 167.828125 179.21875 167.820312 C 179.421875 166.792969 174.625 157.675781 173.804688 155.992188 C 174.699219 155.386719 181.363281 163.539062 181.363281 163.539062 C 181.367188 162.285156 175.585938 154.945312 174.585938 153.554688 C 175.480469 152.15625 176.605469 153.722656 177.589844 154.039062 C 199.609375 166.125 219.886719 181.523438 236.078125 200.769531 Z M 145.523438 127.21875 C 160.277344 135.949219 174.992188 145.261719 187.421875 157.207031 C 181.519531 155.207031 176.671875 150.414062 170.507812 148.648438 C 166.296875 147.898438 165.320312 142.792969 163.140625 143.128906 C 162.375 143.359375 162.351562 144.582031 163.335938 145.644531 C 171.601562 155.933594 174.613281 169.578125 177.1875 182.339844 C 166.382812 163.855469 155.246094 145.625 144.300781 127.285156 C 144.671875 126.636719 145.125 127.042969 145.523438 127.21875 Z M 153.863281 173.730469 C 152.890625 161.195312 148.890625 149.347656 146.164062 137.183594 C 147.3125 137.054688 147.429688 137.984375 147.753906 138.519531 C 156.125 151.964844 163.472656 165.984375 171.761719 179.46875 C 178.71875 190.609375 181.367188 194.988281 182.859375 208.273438 C 183.140625 209.792969 182.777344 210.882812 181.242188 211.554688 C 171.585938 215.679688 164.691406 223.886719 155.652344 228.847656 C 155.941406 210.402344 156.257812 192.058594 153.863281 173.730469 Z M 210.199219 253.910156 C 197.703125 256.023438 202.300781 245.644531 211.25 244.863281 C 218.054688 243.703125 224.203125 247.355469 230.390625 249.613281 C 243.476562 253.464844 259.492188 252.351562 271.050781 244.71875 C 271.710938 244.347656 272.566406 243.234375 273.234375 244.125 C 274.40625 246.449219 263.75 250.402344 261.566406 251.058594 C 253.800781 253.105469 245.988281 253.410156 238.042969 252.726562 C 227.988281 252.238281 218.921875 243.535156 208.753906 247.238281 C 202.261719 249.90625 203.765625 253.277344 210.199219 253.910156 Z M 331.847656 259.242188 C 337.84375 249.394531 322.53125 250.335938 318.023438 255.121094 C 295.882812 272.601562 282.960938 251.84375 265.027344 260.992188 C 261.070312 260.574219 271.308594 256.003906 272.765625 257.09375 C 273.5 257.179688 274.25 257.105469 275.519531 257.105469 C 284.003906 255.996094 292.96875 262.5 301.589844 260.871094 C 307.035156 259.652344 312.386719 258.101562 316.828125 254.453125 C 321.191406 250.335938 331.921875 246.582031 334.683594 253.804688 C 335.96875 255.121094 331.964844 263.332031 331.847656 259.242188 Z M 222.589844 260.503906 C 216.285156 261.9375 210.742188 265.875 203.976562 264.265625 C 196.933594 264.609375 190.984375 261.015625 184.257812 259.636719 C 179.785156 258.964844 175.386719 259.308594 171.023438 260.242188 C 170.828125 260.207031 170.527344 260.03125 170.507812 259.886719 C 172.269531 257.117188 176.925781 258.347656 179.824219 257.785156 C 189.71875 257.289062 198.089844 263.957031 208.019531 263.265625 C 216.136719 263.210938 223.335938 256.117188 231.695312 259.640625 C 234.324219 260.953125 239.984375 260.519531 240.132812 264.28125 C 239.863281 268.109375 231.644531 265.984375 237.464844 264.785156 C 239.5 261.953125 224.714844 259.886719 222.589844 260.503906 Z M 158.726562 253.804688 C 153.128906 254.871094 149.5 259.351562 144.261719 261.070312 C 139.496094 263.019531 133.847656 259.308594 129.867188 263.777344 C 127.628906 257.824219 143.105469 260.953125 146.089844 258.925781 C 155.289062 252.582031 166.214844 249 177.523438 250.128906 C 182.464844 251.625 186.785156 251.898438 191.890625 251.007812 C 182.226562 256.496094 174.082031 247.640625 158.726562 253.804688 Z M 285.515625 270.714844 C 266.867188 282.628906 257.363281 262.054688 237.203125 273.800781 C 235.453125 274.601562 227.984375 277.226562 227.257812 275.125 C 228.199219 274.007812 230.304688 274.238281 231.683594 273.855469 C 239.25 272.609375 245.789062 267.523438 253.792969 268.371094 C 268.285156 271.671875 269.703125 275.140625 285.515625 270.714844 Z M 137.964844 271.277344 C 139.28125 271.421875 140.613281 271.675781 141.625 272.425781 C 133.003906 275.683594 123.621094 264.316406 113.835938 267.3125 C 106.898438 266.839844 99.871094 276.839844 111.066406 271.933594 C 113.347656 272.714844 107.492188 274.5 106.757812 275.035156 C 104.726562 275.839844 102.328125 272.933594 103.5625 271.160156 C 106.386719 266.25 112.089844 265.640625 117.1875 265.128906 C 124.761719 264.660156 130.703125 270.394531 137.964844 271.277344 Z M 86.941406 246.019531 C 77.097656 249.847656 66.515625 254.332031 55.402344 252.949219 C 51.152344 253.230469 47.214844 250.984375 43.105469 250.761719 C 38.375 252.097656 44.453125 255.0625 46.492188 255.515625 C 43.074219 257.480469 37.109375 252.742188 41.226562 249.890625 C 42.703125 249.007812 44.308594 248.894531 45.863281 249.484375 C 52.65625 252.058594 59.628906 252.042969 66.667969 250.992188 C 73.832031 251.664062 80.976562 243.714844 86.941406 246.019531 Z M 92.222656 235.964844 C 98.480469 233.261719 104.910156 236.019531 111.367188 236.585938 C 118.863281 238.132812 124.960938 231.683594 132.226562 233.402344 C 133.800781 234.21875 137.269531 233.492188 137.808594 235.304688 C 132.449219 237.011719 132.296875 231.773438 121.5625 236.847656 C 111.964844 240.757812 102.054688 234.1875 92.222656 235.964844 Z M 206.644531 241.234375 C 189.640625 238.171875 186.628906 246.792969 173.414062 244.683594 C 170.957031 242.707031 175.636719 243.21875 176.816406 243.332031 C 187.910156 243.558594 194.339844 235.855469 206.957031 240.191406 C 207.675781 240.523438 207.363281 241.347656 206.644531 241.234375 Z M 102 18.402344 C 106.035156 19.707031 107.925781 13.765625 112.296875 14.90625 C 113.070312 14.921875 113.707031 15.238281 113.863281 16.054688 C 111.457031 17.273438 107.992188 15.851562 106.480469 19.445312 C 107.046875 19.515625 107.617188 19.582031 108.222656 19.648438 C 106.78125 20.964844 103.429688 24.117188 102.628906 21.828125 C 103.019531 20.242188 100.832031 19.730469 99.792969 20.503906 C 99.136719 21.03125 98.675781 21.796875 98.070312 22.394531 C 94.414062 23.949219 99.90625 16.679688 102 18.402344 Z M 232.996094 90.109375 C 233.226562 87.746094 238.363281 86.285156 240.023438 88.148438 C 242.058594 89.894531 244.046875 87.464844 246.292969 87.71875 C 247.640625 87.519531 250.707031 88.675781 249.742188 90.289062 C 247.710938 91.433594 247.273438 87.679688 242.296875 90.402344 C 242.898438 91.171875 243.199219 91.554688 243.613281 92.089844 C 242.359375 92.726562 234.757812 93.25 238.367188 90.828125 C 239.789062 89.535156 237.082031 88.8125 236.164062 89.351562 C 235.175781 89.519531 233.824219 91.339844 232.996094 90.109375 Z M 183.597656 54.925781 C 183.386719 54.125 185.851562 53.589844 186.039062 53.601562 C 191.9375 53.441406 189.609375 58.210938 196.441406 54.640625 C 198.453125 53.765625 199.890625 55.203125 199.359375 57.203125 C 199.226562 57.320312 198.796875 57.339844 198.71875 57.234375 C 197.421875 55.425781 195.917969 56.175781 194.449219 56.882812 C 194.160156 57.019531 193.765625 57.488281 193.820312 57.695312 C 194.460938 60.308594 191.269531 58.804688 189.964844 58.8125 C 187.699219 57.964844 190.269531 55.164062 185.710938 55.324219 C 184.988281 55.109375 183.742188 56.210938 183.597656 54.925781 Z M 87.96875 137.238281 C 87.949219 137.234375 87.925781 137.222656 87.902344 137.210938 C 87.917969 137.199219 87.9375 137.191406 87.953125 137.179688 L 87.902344 137.007812 C 87.917969 137.039062 87.957031 137.105469 87.96875 137.167969 C 87.976562 137.167969 87.976562 137.164062 87.980469 137.164062 Z M 87.902344 137.210938 C 81.355469 141.902344 84.523438 134.710938 81.027344 137.457031 C 80.371094 137.972656 80.058594 139.511719 79.070312 139.273438 C 78.375 137.578125 81 134.027344 82.984375 134.859375 C 86.386719 135.921875 85.855469 129.269531 91.609375 130.386719 C 95.046875 131.625 91.089844 132.230469 89.605469 132.257812 C 87.253906 132.710938 84.5 136.015625 87.902344 137.210938 Z M 186.621094 176.007812 C 191.648438 173.707031 198.78125 189.496094 205.652344 190.597656 C 206.140625 190.773438 205.929688 191.558594 205.433594 191.378906 C 196.472656 188.515625 195.957031 179.949219 186.621094 176.007812 Z M 186.621094 176.007812 "/><g style="fill:#ffffff;fill-opacity:1;"><g transform="translate(1.023143, 344.134334)"><path style="stroke:none" d="M 2.296875 0 L 2.296875 -0.65625 L 4.484375 -1.3125 C 5.265625 -1.53125 5.832031 -1.957031 6.1875 -2.59375 C 6.539062 -3.238281 6.71875 -4 6.71875 -4.875 L 6.71875 -36.546875 C 6.226562 -37.597656 5.84375 -38.382812 5.5625 -38.90625 C 5.28125 -39.4375 4.960938 -39.890625 4.609375 -40.265625 C 4.253906 -40.640625 3.769531 -41.109375 3.15625 -41.671875 L 2.046875 -42.796875 L 2.046875 -43.453125 L 13.703125 -43.453125 L 35.5625 -13.625 L 35.5625 -38.453125 C 35.5625 -39.328125 35.414062 -40.113281 35.125 -40.8125 C 34.84375 -41.519531 34.265625 -41.984375 33.390625 -42.203125 L 31.203125 -42.796875 L 31.203125 -43.453125 L 40.625 -43.453125 L 40.625 -42.796875 L 38.84375 -42.203125 C 38.050781 -41.941406 37.566406 -41.476562 37.390625 -40.8125 C 37.222656 -40.15625 37.140625 -39.390625 37.140625 -38.515625 L 37.140625 0.203125 L 33.453125 0.203125 L 8.296875 -34.375 L 8.296875 -4.875 C 8.296875 -4 8.425781 -3.253906 8.6875 -2.640625 C 8.957031 -2.023438 9.507812 -1.582031 10.34375 -1.3125 L 12.3125 -0.65625 L 12.3125 0 Z M 2.296875 0 "/></g></g><g style="fill:#ffffff;fill-opacity:1;"><g transform="translate(42.6299, 344.134334)"><path style="stroke:none" d="M 0.53125 0 L 0.53125 -0.65625 L 2.171875 -1.25 C 3.046875 -1.601562 3.722656 -2.03125 4.203125 -2.53125 C 4.691406 -3.039062 5.09375 -3.753906 5.40625 -4.671875 L 18.96875 -43.59375 L 24.5625 -43.59375 L 37.921875 -4.40625 C 38.273438 -3.445312 38.671875 -2.710938 39.109375 -2.203125 C 39.546875 -1.703125 40.226562 -1.273438 41.15625 -0.921875 L 41.9375 -0.65625 L 41.9375 0 L 25.21875 0 L 25.21875 -0.65625 L 26.203125 -0.984375 C 27.128906 -1.335938 27.691406 -1.832031 27.890625 -2.46875 C 28.085938 -3.101562 28.050781 -3.859375 27.78125 -4.734375 L 24.6875 -14.21875 L 10.078125 -14.21875 L 6.90625 -4.9375 C 6.601562 -3.96875 6.503906 -3.195312 6.609375 -2.625 C 6.722656 -2.0625 7.242188 -1.601562 8.171875 -1.25 L 9.609375 -0.65625 L 9.609375 0 Z M 10.53125 -15.546875 L 24.296875 -15.546875 L 17.640625 -36.015625 Z M 10.53125 -15.546875 "/></g></g><g style="fill:#ffffff;fill-opacity:1;"><g transform="translate(79.956723, 344.134334)"><path style="stroke:none" d="M 18.703125 0.203125 L 4.609375 -39.046875 C 4.296875 -39.921875 3.890625 -40.609375 3.390625 -41.109375 C 2.890625 -41.617188 2.195312 -42.003906 1.3125 -42.265625 L -0.265625 -42.796875 L -0.265625 -43.453125 L 18.703125 -43.453125 L 18.703125 -42.796875 L 16.65625 -42.203125 C 15.644531 -41.941406 15.082031 -41.476562 14.96875 -40.8125 C 14.863281 -40.15625 14.96875 -39.347656 15.28125 -38.390625 L 25.015625 -9.484375 L 34.828125 -38.453125 C 35.179688 -39.460938 35.347656 -40.296875 35.328125 -40.953125 C 35.304688 -41.609375 34.789062 -42.070312 33.78125 -42.34375 L 32.0625 -42.796875 L 32.0625 -43.453125 L 41.28125 -43.453125 L 41.28125 -42.796875 L 39.5 -42.265625 C 38.664062 -42.046875 38.070312 -41.660156 37.71875 -41.109375 C 37.375 -40.566406 37.046875 -39.859375 36.734375 -38.984375 L 23.578125 0.203125 Z M 18.703125 0.203125 "/></g></g><g style="fill:#ffffff;fill-opacity:1;"><g transform="translate(123.539125, 344.134334)"><path style="stroke:none" d="M 1.453125 0 L 1.453125 -0.65625 L 2.96875 -1.25 C 3.707031 -1.5625 4.21875 -1.96875 4.5 -2.46875 C 4.789062 -2.96875 4.9375 -3.660156 4.9375 -4.546875 L 4.9375 -38.90625 C 4.9375 -39.789062 4.816406 -40.484375 4.578125 -40.984375 C 4.335938 -41.492188 3.800781 -41.898438 2.96875 -42.203125 L 1.453125 -42.796875 L 1.453125 -43.453125 L 32.984375 -43.453125 L 33.390625 -33.3125 L 32.71875 -33.3125 L 29.890625 -39.5 C 29.492188 -40.289062 29.078125 -40.925781 28.640625 -41.40625 C 28.203125 -41.894531 27.546875 -42.140625 26.671875 -42.140625 L 14.8125 -42.140625 L 14.8125 -23.109375 L 21.859375 -23.109375 C 22.734375 -23.109375 23.398438 -23.335938 23.859375 -23.796875 C 24.328125 -24.265625 24.738281 -24.890625 25.09375 -25.671875 L 26.40625 -28.3125 L 27.0625 -28.3125 L 27.0625 -16.46875 L 26.40625 -16.46875 L 25.09375 -19.21875 C 24.695312 -20.007812 24.273438 -20.632812 23.828125 -21.09375 C 23.390625 -21.5625 22.734375 -21.796875 21.859375 -21.796875 L 14.8125 -21.796875 L 14.8125 -1.3125 L 28.109375 -1.3125 C 28.992188 -1.3125 29.675781 -1.539062 30.15625 -2 C 30.632812 -2.46875 31.03125 -3.117188 31.34375 -3.953125 L 34.046875 -10.140625 L 34.703125 -10.140625 L 34.296875 0 Z M 1.453125 0 "/></g></g><g style="fill:#ffffff;fill-opacity:1;"><g transform="translate(161.328033, 344.134334)"><path style="stroke:none" d="M 23.96875 1.1875 C 19.488281 1.1875 15.546875 0.253906 12.140625 -1.609375 C 8.742188 -3.472656 6.085938 -6.128906 4.171875 -9.578125 C 2.265625 -13.023438 1.3125 -17.097656 1.3125 -21.796875 C 1.3125 -26.359375 2.253906 -30.347656 4.140625 -33.765625 C 6.035156 -37.191406 8.769531 -39.859375 12.34375 -41.765625 C 15.925781 -43.679688 20.257812 -44.640625 25.34375 -44.640625 C 27.675781 -44.640625 29.835938 -44.375 31.828125 -43.84375 C 33.828125 -43.320312 35.726562 -42.554688 37.53125 -41.546875 L 37.796875 -32.328125 L 37.140625 -32.328125 L 33.453125 -39.171875 C 32.878906 -40.273438 32.347656 -41.066406 31.859375 -41.546875 C 31.378906 -42.023438 30.769531 -42.398438 30.03125 -42.671875 C 29.320312 -42.890625 28.671875 -43.050781 28.078125 -43.15625 C 27.484375 -43.269531 26.707031 -43.328125 25.75 -43.328125 C 23.019531 -43.328125 20.613281 -42.601562 18.53125 -41.15625 C 16.445312 -39.707031 14.832031 -37.398438 13.6875 -34.234375 C 12.550781 -31.078125 11.984375 -26.929688 11.984375 -21.796875 C 11.984375 -16.703125 12.519531 -12.550781 13.59375 -9.34375 C 14.664062 -6.144531 16.191406 -3.804688 18.171875 -2.328125 C 20.148438 -0.859375 22.429688 -0.125 25.015625 -0.125 C 25.410156 -0.125 25.796875 -0.15625 26.171875 -0.21875 C 26.546875 -0.289062 26.910156 -0.367188 27.265625 -0.453125 C 28.097656 -0.585938 28.644531 -0.941406 28.90625 -1.515625 C 29.164062 -2.085938 29.296875 -2.769531 29.296875 -3.5625 L 29.296875 -16.59375 C 29.296875 -18.300781 28.421875 -19.351562 26.671875 -19.75 L 23.640625 -20.546875 L 23.640625 -21.203125 L 42.203125 -21.203125 L 42.203125 -20.546875 L 41.28125 -20.28125 C 39.613281 -19.75 38.78125 -18.648438 38.78125 -16.984375 L 38.78125 -2.703125 C 36.5 -1.429688 34.179688 -0.46875 31.828125 0.1875 C 29.484375 0.851562 26.863281 1.1875 23.96875 1.1875 Z M 23.96875 1.1875 "/></g></g><g style="fill:#ffffff;fill-opacity:1;"><g transform="translate(204.7126, 344.134334)"><path style="stroke:none" d="M 0.53125 0 L 0.53125 -0.65625 L 2.171875 -1.25 C 3.046875 -1.601562 3.722656 -2.03125 4.203125 -2.53125 C 4.691406 -3.039062 5.09375 -3.753906 5.40625 -4.671875 L 18.96875 -43.59375 L 24.5625 -43.59375 L 37.921875 -4.40625 C 38.273438 -3.445312 38.671875 -2.710938 39.109375 -2.203125 C 39.546875 -1.703125 40.226562 -1.273438 41.15625 -0.921875 L 41.9375 -0.65625 L 41.9375 0 L 25.21875 0 L 25.21875 -0.65625 L 26.203125 -0.984375 C 27.128906 -1.335938 27.691406 -1.832031 27.890625 -2.46875 C 28.085938 -3.101562 28.050781 -3.859375 27.78125 -4.734375 L 24.6875 -14.21875 L 10.078125 -14.21875 L 6.90625 -4.9375 C 6.601562 -3.96875 6.503906 -3.195312 6.609375 -2.625 C 6.722656 -2.0625 7.242188 -1.601562 8.171875 -1.25 L 9.609375 -0.65625 L 9.609375 0 Z M 10.53125 -15.546875 L 24.296875 -15.546875 L 17.640625 -36.015625 Z M 10.53125 -15.546875 "/></g></g><g style="fill:#ffffff;fill-opacity:1;"><g transform="translate(249.216631, 344.134334)"><path style="stroke:none" d="M 2.296875 0 L 2.296875 -0.65625 L 4.484375 -1.3125 C 5.265625 -1.53125 5.832031 -1.957031 6.1875 -2.59375 C 6.539062 -3.238281 6.71875 -4 6.71875 -4.875 L 6.71875 -36.546875 C 6.226562 -37.597656 5.84375 -38.382812 5.5625 -38.90625 C 5.28125 -39.4375 4.960938 -39.890625 4.609375 -40.265625 C 4.253906 -40.640625 3.769531 -41.109375 3.15625 -41.671875 L 2.046875 -42.796875 L 2.046875 -43.453125 L 13.703125 -43.453125 L 35.5625 -13.625 L 35.5625 -38.453125 C 35.5625 -39.328125 35.414062 -40.113281 35.125 -40.8125 C 34.84375 -41.519531 34.265625 -41.984375 33.390625 -42.203125 L 31.203125 -42.796875 L 31.203125 -43.453125 L 40.625 -43.453125 L 40.625 -42.796875 L 38.84375 -42.203125 C 38.050781 -41.941406 37.566406 -41.476562 37.390625 -40.8125 C 37.222656 -40.15625 37.140625 -39.390625 37.140625 -38.515625 L 37.140625 0.203125 L 33.453125 0.203125 L 8.296875 -34.375 L 8.296875 -4.875 C 8.296875 -4 8.425781 -3.253906 8.6875 -2.640625 C 8.957031 -2.023438 9.507812 -1.582031 10.34375 -1.3125 L 12.3125 -0.65625 L 12.3125 0 Z M 2.296875 0 "/></g></g><g style="fill:#ffffff;fill-opacity:1;"><g transform="translate(294.181555, 344.134334)"><path style="stroke:none" d="M 10.265625 0 L 10.265625 -0.65625 L 12.96875 -1.3125 C 14.769531 -1.707031 15.671875 -2.804688 15.671875 -4.609375 L 15.671875 -42.140625 L 10.078125 -42.140625 C 8.453125 -42.140625 7.285156 -41.710938 6.578125 -40.859375 C 5.878906 -40.003906 5.132812 -38.828125 4.34375 -37.328125 L 1.96875 -32.71875 L 1.3125 -32.71875 L 1.640625 -43.453125 L 39.640625 -43.453125 L 39.90625 -32.71875 L 39.25 -32.71875 L 36.875 -37.328125 C 36.125 -38.828125 35.394531 -40.003906 34.6875 -40.859375 C 33.988281 -41.710938 32.828125 -42.140625 31.203125 -42.140625 L 25.609375 -42.140625 L 25.609375 -4.609375 C 25.609375 -2.804688 26.507812 -1.707031 28.3125 -1.3125 L 31.015625 -0.65625 L 31.015625 0 Z M 10.265625 0 "/></g></g><g style="fill:#ffffff;fill-opacity:1;"><g transform="translate(337.434758, 344.134334)"><path style="stroke:none" d="M 1.453125 0 L 1.453125 -0.65625 L 2.96875 -1.25 C 3.707031 -1.5625 4.21875 -1.96875 4.5 -2.46875 C 4.789062 -2.96875 4.9375 -3.660156 4.9375 -4.546875 L 4.9375 -38.90625 C 4.9375 -39.789062 4.816406 -40.484375 4.578125 -40.984375 C 4.335938 -41.492188 3.800781 -41.898438 2.96875 -42.203125 L 1.453125 -42.796875 L 1.453125 -43.453125 L 32.984375 -43.453125 L 33.390625 -33.3125 L 32.71875 -33.3125 L 29.890625 -39.5 C 29.492188 -40.289062 29.078125 -40.925781 28.640625 -41.40625 C 28.203125 -41.894531 27.546875 -42.140625 26.671875 -42.140625 L 14.8125 -42.140625 L 14.8125 -23.109375 L 21.859375 -23.109375 C 22.734375 -23.109375 23.398438 -23.335938 23.859375 -23.796875 C 24.328125 -24.265625 24.738281 -24.890625 25.09375 -25.671875 L 26.40625 -28.3125 L 27.0625 -28.3125 L 27.0625 -16.46875 L 26.40625 -16.46875 L 25.09375 -19.21875 C 24.695312 -20.007812 24.273438 -20.632812 23.828125 -21.09375 C 23.390625 -21.5625 22.734375 -21.796875 21.859375 -21.796875 L 14.8125 -21.796875 L 14.8125 -1.3125 L 28.109375 -1.3125 C 28.992188 -1.3125 29.675781 -1.539062 30.15625 -2 C 30.632812 -2.46875 31.03125 -3.117188 31.34375 -3.953125 L 34.046875 -10.140625 L 34.703125 -10.140625 L 34.296875 0 Z M 1.453125 0 "/></g></g></g></svg>